<svg xmlns="http://www.w3.org/2000/svg" xmlns:xlink="http://www.w3.org/1999/xlink" width="36" height="36" preserveAspectRatio="xMidYMid meet" viewBox="0 0 15 15" style="-ms-transform: rotate(360deg); -webkit-transform: rotate(360deg); transform: rotate(360deg);"><g fill="none"><path d="M10 8V7h1v1h-1z" fill="#7b3399"/><path fill-rule="evenodd" clip-rule="evenodd" d="M7.5.421L14 4.213v6.574L7.5 14.58L1 10.787V4.213L7.5.42zM6.332 4A3.332 3.332 0 0 0 3 7.332v.336a3.332 3.332 0 0 0 4.821 2.98l.403-.2l-.448-.895l-.402.2A2.331 2.331 0 0 1 4 7.669v-.336a2.332 2.332 0 0 1 3.374-2.086l.402.201l.448-.894l-.403-.201A3.332 3.332 0 0 0 6.331 4zM9 5v1H8v1h1v1H8v1h1v1h1V9h1v1h1V9h1V8h-1V7h1V6h-1V5h-1v1h-1V5H9z" fill="#7b3399"/></g><rect x="0" y="0" width="15" height="15" fill="rgba(0, 0, 0, 0)" /></svg>