<svg xmlns="http://www.w3.org/2000/svg" xmlns:xlink="http://www.w3.org/1999/xlink" width="36" height="36" preserveAspectRatio="xMidYMid meet" viewBox="0 0 1024 1024" style="-ms-transform: rotate(360deg); -webkit-transform: rotate(360deg); transform: rotate(360deg);"><path d="M880 112H144c-17.7 0-32 14.3-32 32v736c0 17.7 14.3 32 32 32h736c17.7 0 32-14.3 32-32V144c0-17.7-14.3-32-32-32zm-92.4 233.5h-63.9c-50.1 0-59.8 23.8-59.8 58.8v77.1h119.6l-15.6 120.7h-104V912H539.2V602.2H434.9V481.4h104.3v-89c0-103.3 63.1-159.6 155.3-159.6c44.2 0 82.1 3.3 93.2 4.8v107.9z" fill="#3b5998"/><rect x="0" y="0" width="1024" height="1024" fill="rgba(0, 0, 0, 0)" /></svg>