<svg xmlns="http://www.w3.org/2000/svg" xmlns:xlink="http://www.w3.org/1999/xlink" width="36" height="36" preserveAspectRatio="xMidYMid meet" viewBox="0 0 1200 1200" style="-ms-transform: rotate(360deg); -webkit-transform: rotate(360deg); transform: rotate(360deg);"><path d="M0 0v1200h1200V0H0zm294.287 235.913c47.53.535 94.35 33.325 96.387 90.088c1.016 50.475-42.971 88.921-97.632 90.088h-1.318c-47.057-.543-93.012-34.156-95.142-90.088c.671-49.913 42.627-88.904 97.705-90.088zM804.199 474.39c52.255.324 101.572 15.826 142.09 57.13c42.106 46.96 55.624 111.71 57.129 177.538v299.414H830.859V729.419c-.384-52.302-18.3-115.877-87.524-117.993c-40.571.432-69.18 24.007-88.77 63.428c-5.348 12.688-6.118 27.273-6.372 41.821v291.797H475.708c.66-145.877 1.567-291.743 1.245-437.622c0-41.438-.399-69.34-1.245-83.716h172.485v73.535c14.641-20.823 30.879-40.571 52.66-56.47c29.545-21.085 65.036-29.168 103.346-29.809zm-597.436 12.744h172.485v521.338H206.763V487.134z" fill="#0e76a8"/><rect x="0" y="0" width="1200" height="1200" fill="rgba(0, 0, 0, 0)" /></svg>