<svg xmlns="http://www.w3.org/2000/svg" xmlns:xlink="http://www.w3.org/1999/xlink" width="36" height="36" preserveAspectRatio="xMidYMid meet" viewBox="0 0 24 24" style="-ms-transform: rotate(360deg); -webkit-transform: rotate(360deg); transform: rotate(360deg);"><g fill="none"><path d="M23.643 4.937c-.835.37-1.732.62-2.675.733a4.67 4.67 0 0 0 2.048-2.578a9.3 9.3 0 0 1-2.958 1.13a4.66 4.66 0 0 0-7.938 4.25a13.229 13.229 0 0 1-9.602-4.868c-.4.69-.63 1.49-.63 2.342A4.66 4.66 0 0 0 3.96 9.824a4.647 4.647 0 0 1-2.11-.583v.06a4.66 4.66 0 0 0 3.737 4.568a4.692 4.692 0 0 1-2.104.08a4.661 4.661 0 0 0 4.352 3.234a9.348 9.348 0 0 1-5.786 1.995a9.5 9.5 0 0 1-1.112-.065a13.175 13.175 0 0 0 7.14 2.093c8.57 0 13.255-7.098 13.255-13.254c0-.2-.005-.402-.014-.602a9.47 9.47 0 0 0 2.323-2.41l.002-.003z" fill="#1DA1F2"/></g><rect x="0" y="0" width="24" height="24" fill="rgba(0, 0, 0, 0)" /></svg>