<svg id="SvgjsSvg1001" width="288" height="288" xmlns="http://www.w3.org/2000/svg" version="1.1" xmlns:xlink="http://www.w3.org/1999/xlink" xmlns:svgjs="http://svgjs.com/svgjs"><defs id="SvgjsDefs1002"></defs><g id="SvgjsG1008"><svg xmlns="http://www.w3.org/2000/svg" style="-ms-transform:rotate(360deg);-webkit-transform:rotate(360deg)" width="288" height="288" transform="rotate(360)" viewBox="0 0 24 24"><path fill="#ffd700" fill-rule="evenodd" d="M23 0H1a1 1 0 0 0-1 1v22a1 1 0 0 0 1 1h11.75v-9h-3v-3.75h3v-3c0-3.1 1.963-4.625 4.728-4.625c1.324 0 2.463.099 2.794.142v3.24l-1.917.001c-1.504 0-1.855.715-1.855 1.763v2.479h3.75L19.5 15h-3l.06 9H23a1 1 0 0 0 1-1V1a1 1 0 0 0-1-1" class="color3b5998 svgShape"></path><rect width="24" height="24" fill="rgba(0, 0, 0, 0)" class="colorrgba0000 svgShape"></rect></svg></g></svg>